<svg width="942" height="691" viewBox="0 0 942 691" fill="none" xmlns="http://www.w3.org/2000/svg">
<g opacity="0.6" filter="url(#filter0_f_0_3)">
<path d="M767 671C797.376 671 822 646.376 822 616C822 585.624 797.376 561 767 561C736.624 561 712 585.624 712 616C712 646.376 736.624 671 767 671Z" fill="white"/>
<path d="M267 344C269.209 344 271 342.209 271 340C271 337.791 269.209 336 267 336C264.791 336 263 337.791 263 340C263 342.209 264.791 344 267 344Z" fill="white"/>
<path d="M190 531C191.657 531 193 529.657 193 528C193 526.343 191.657 525 190 525C188.343 525 187 526.343 187 528C187 529.657 188.343 531 190 531Z" fill="white"/>
<path d="M489 555C495.075 555 500 550.075 500 544C500 537.925 495.075 533 489 533C482.925 533 478 537.925 478 544C478 550.075 482.925 555 489 555Z" fill="white"/>
<path d="M80 372C108.167 372 131 349.167 131 321C131 292.833 108.167 270 80 270C51.8335 270 29 292.833 29 321C29 349.167 51.8335 372 80 372Z" fill="white"/>
<path d="M516 301C524.284 301 531 294.284 531 286C531 277.716 524.284 271 516 271C507.716 271 501 277.716 501 286C501 294.284 507.716 301 516 301Z" fill="white"/>
<path d="M349 573C358.941 573 367 564.941 367 555C367 545.059 358.941 537 349 537C339.059 537 331 545.059 331 555C331 564.941 339.059 573 349 573Z" fill="white"/>
<path d="M901 204C907.075 204 912 199.075 912 193C912 186.925 907.075 182 901 182C894.925 182 890 186.925 890 193C890 199.075 894.925 204 901 204Z" fill="white"/>
<path d="M465 434C492.062 434 514 412.062 514 385C514 357.938 492.062 336 465 336C437.938 336 416 357.938 416 385C416 412.062 437.938 434 465 434Z" fill="white"/>
<path d="M667 514C681.359 514 693 502.359 693 488C693 473.641 681.359 462 667 462C652.641 462 641 473.641 641 488C641 502.359 652.641 514 667 514Z" fill="white"/>
<path d="M756 100C778.091 100 796 82.0914 796 60C796 37.9086 778.091 20 756 20C733.909 20 716 37.9086 716 60C716 82.0914 733.909 100 756 100Z" fill="white"/>
<path d="M50 551C66.5685 551 80 537.569 80 521C80 504.431 66.5685 491 50 491C33.4315 491 20 504.431 20 521C20 537.569 33.4315 551 50 551Z" fill="white"/>
</g>
<defs>
<filter id="filter0_f_0_3" x="0" y="0" width="962" height="691" filterUnits="userSpaceOnUse" color-interpolation-filters="sRGB">
<feFlood flood-opacity="0" result="BackgroundImageFix"/>
<feBlend mode="normal" in="SourceGraphic" in2="BackgroundImageFix" result="shape"/>
<feGaussianBlur stdDeviation="10" result="effect1_foregroundBlur_0_3"/>
</filter>
</defs>
</svg>
