<svg xmlns="http://www.w3.org/2000/svg" viewBox="0 0 3822 577" width="600" height="91"><style>tspan { white-space:pre }.shp0 { fill: #ffffff } </style><g ><path fill="#ffffff" d="M684.7 22.63L697.78 22.63L697.78 561L682.4 561L682.4 55.7L437.05 484.86L427.82 484.86L182.48 57.24L182.48 561L167.1 561L167.1 22.63L180.17 22.63L432.44 464.09L684.7 22.63ZM1206.92 163.37L1222.31 163.37L1222.31 561L1206.92 561L1206.92 455.63Q1189.23 506.39 1147.7 534.85Q1106.17 563.31 1046.95 563.31Q970.04 563.31 926.97 521.01Q883.9 477.94 883.9 397.95L883.9 163.37L899.28 163.37L899.28 397.95Q899.28 471.02 937.74 510.24Q976.19 548.69 1046.18 548.69Q1120.78 548.69 1163.85 502.55Q1206.92 455.63 1206.92 379.49L1206.92 163.37ZM1490.72 563.31Q1443.04 563.31 1400.74 547.93Q1358.44 532.54 1335.36 508.7L1344.59 496.4Q1367.67 518.7 1406.12 534.08Q1445.35 548.69 1490.72 548.69Q1558.4 548.69 1590.71 525.62Q1623.01 501.78 1623.01 460.25Q1623.01 430.25 1605.32 413.33Q1588.4 395.64 1563.02 387.95Q1538.41 379.49 1494.57 371.03Q1447.65 362.57 1418.43 353.34Q1389.97 343.34 1369.97 322.58Q1350.75 301.04 1350.75 263.36Q1350.75 220.29 1386.12 191.06Q1422.27 161.07 1491.49 161.07Q1528.41 161.07 1564.56 172.6Q1600.7 183.37 1623.01 201.83L1613.78 214.13Q1590.71 195.68 1558.4 185.68Q1526.1 175.68 1491.49 175.68Q1429.19 175.68 1397.66 200.29Q1366.9 224.13 1366.9 263.36Q1366.9 294.89 1384.59 313.35Q1402.28 331.04 1428.43 339.5Q1454.57 347.96 1497.64 355.65Q1544.56 364.88 1572.25 374.11Q1599.93 383.34 1619.16 404.1Q1638.39 424.1 1638.39 460.25Q1638.39 507.16 1600.7 535.62Q1563.02 563.31 1490.72 563.31ZM1755.29 561L1755.29 163.37L1770.68 163.37L1770.68 561L1755.29 561ZM1762.98 53.39Q1754.52 53.39 1748.37 47.24Q1742.99 41.09 1742.99 33.4Q1742.99 24.94 1748.37 19.55Q1754.52 13.4 1762.98 13.4Q1770.68 13.4 1776.83 19.55Q1782.98 24.94 1782.98 33.4Q1782.98 41.09 1776.83 47.24Q1770.68 53.39 1762.98 53.39ZM2096.01 563.31Q2039.86 563.31 1995.25 537.93Q1950.65 511.78 1925.27 466.4Q1900.65 420.25 1900.65 361.8Q1900.65 303.35 1925.27 257.97Q1950.65 211.83 1995.25 186.45Q2039.86 161.07 2096.01 161.07Q2139.84 161.07 2176.76 177.99Q2214.45 194.14 2239.06 225.67L2228.29 237.21Q2205.99 206.44 2171.38 191.06Q2136.77 175.68 2096.01 175.68Q2044.48 175.68 2002.94 199.52Q1962.18 222.6 1939.11 265.66Q1916.04 307.97 1916.04 361.8Q1916.04 416.41 1939.11 458.71Q1962.18 501.01 2002.94 524.85Q2044.48 548.69 2096.01 548.69Q2136.77 548.69 2171.38 533.31Q2205.99 517.93 2228.29 487.17L2239.06 498.7Q2214.45 530.24 2176.76 547.16Q2139.84 563.31 2096.01 563.31ZM2512.09 563.31Q2453.64 563.31 2402.11 542.54Q2350.58 521.01 2322.89 487.17L2333.66 477.17Q2359.81 507.93 2408.26 528.7Q2456.71 548.69 2511.32 548.69Q2595.15 548.69 2637.45 515.62Q2680.52 481.78 2680.52 428.71Q2680.52 387.18 2658.22 362.57Q2635.92 337.96 2602.84 325.65Q2570.54 313.35 2515.17 300.27Q2455.95 285.66 2421.34 272.59Q2386.73 258.74 2362.12 231.06Q2338.27 202.6 2338.27 155.68Q2338.27 118.77 2357.5 88Q2376.73 57.24 2417.49 38.78Q2458.25 20.32 2518.24 20.32Q2561.31 20.32 2602.84 34.16Q2644.38 47.24 2674.37 69.54L2665.91 81.85Q2634.38 58.78 2595.15 47.24Q2556.7 34.93 2519.01 34.93Q2438.26 34.93 2395.96 69.54Q2353.66 103.38 2353.66 156.45Q2353.66 197.98 2375.96 223.36Q2398.26 247.98 2431.33 260.28Q2464.41 272.59 2520.55 286.43Q2579 301.04 2613.61 314.89Q2648.22 327.96 2672.06 355.65Q2695.91 382.57 2695.91 428.71Q2695.91 465.63 2675.91 496.4Q2655.91 527.16 2614.38 545.62Q2573.62 563.31 2512.09 563.31ZM3062 563.31Q2984.32 563.31 2921.25 527.93Q2858.19 492.55 2822.04 431.02Q2785.89 368.72 2785.89 291.81Q2785.89 214.9 2822.04 153.38Q2858.19 91.08 2921.25 55.7Q2984.32 20.32 3062 20.32Q3139.68 20.32 3202.74 55.7Q3265.81 91.08 3301.96 153.38Q3338.11 214.9 3338.11 291.81Q3338.11 368.72 3301.96 431.02Q3265.81 492.55 3202.74 527.93Q3139.68 563.31 3062 563.31ZM3062 548.69Q3135.06 548.69 3194.28 515.62Q3254.27 481.78 3288.11 423.33Q3322.72 364.11 3322.72 291.81Q3322.72 219.52 3288.11 161.07Q3254.27 101.85 3194.28 68.77Q3135.06 34.93 3062 34.93Q2988.93 34.93 2928.94 68.77Q2869.72 101.85 2835.11 161.07Q2801.27 219.52 2801.27 291.81Q2801.27 364.11 2835.11 423.33Q2869.72 481.78 2928.94 515.62Q2988.93 548.69 3062 548.69ZM3485.77 561L3485.77 22.63L3501.16 22.63L3501.16 546.39L3821.87 546.39L3821.87 561L3485.77 561Z" /><path class="shp0" d="M34.9 4.66C28.76 12.9 19.46 31.34 15.41 43.34C7.32 68.07 6.57 108.7 13.62 157.27C23.96 228.34 20.96 257.87 0.72 286.35C-0.63 288.3 -0.18 289.8 2.82 293.85C14.37 309.29 19.31 327.58 19.31 355.17C19.31 374.36 18.41 383.05 11.52 435.37C6.42 473.9 8.22 511.83 16.01 535.37C22.46 554.26 37.45 578.85 41.2 576.45C44.05 574.8 43.3 571.95 37.75 562.66C23.36 538.82 20.06 512.43 25.76 466.11C34 397.29 34.6 388.9 32.81 368.66C30.11 338.98 23.81 317.39 12.12 298.05C9.27 293.4 7.02 288.75 7.02 287.85C7.02 286.95 9.27 282.76 11.97 278.41C28.46 252.47 37 207.05 32.66 169.27C31.76 161.47 29.36 140.48 27.26 122.79C20.06 62.98 22.31 39.89 37.75 14.25C40.6 9.45 43 4.21 43 2.71C43 -1.64 39.1 -0.59 34.9 4.66Z" /></g></svg>