<svg width="568" height="167" viewBox="0 0 568 167" fill="none" xmlns="http://www.w3.org/2000/svg">
<path fill-rule="evenodd" clip-rule="evenodd" d="M95.5591 86.1066C95.259 85.177 94.9132 84.2583 94.5404 83.3506C97.7885 74.8088 96.0045 67.9717 96.0045 67.9717C91.6688 54.4664 79.1347 43.2577 67.0751 35.7852C65.812 35.0026 64.637 34.2939 63.5423 33.6336C56.0424 29.1097 52.307 26.8565 49.7487 18.6961C49.6614 18.0117 49.5232 17.309 49.2958 16.6881C49.2543 16.5761 49.1841 16.4783 49.114 16.3805C49.1012 16.3627 49.0883 16.3448 49.0757 16.3268C49.0739 16.3187 49.0717 16.311 49.0695 16.3033C49.0672 16.2955 49.065 16.2878 49.0632 16.2796C49.0632 16.2844 49.0621 16.2882 49.0611 16.2918C49.0602 16.295 49.0594 16.2981 49.0594 16.3015C48.1591 15.0815 45.5241 14.7619 44.1364 15.1649C43.0101 15.4923 43.0133 16.7736 43.0159 17.8635C43.016 17.9158 43.0162 17.9677 43.0162 18.0189C43.0162 18.1567 43.0185 18.298 43.0208 18.4398C43.0226 18.5465 43.0244 18.6535 43.0251 18.7596L42.7924 129.157C36.2652 125.916 26.2934 126.811 16.8982 131.688C3.84569 138.463 -3.1143 150.905 1.35233 159.479C5.81896 168.054 20.019 169.513 33.0715 162.738C43.9635 157.084 48.2028 147.746 48.1519 139.77V56.4071C48.7826 56.7775 49.2968 57.0872 49.757 57.3644C51.5435 58.4406 52.5182 59.0278 56.3504 60.7788C73.5986 68.6616 93.731 89.7465 86.7074 108.773C86.0367 110.588 84.3654 113.556 83.0085 115.966C82.474 116.915 81.9883 117.778 81.6317 118.449C78.7619 123.854 86.1692 122.396 89.1391 118.035C95.7663 108.302 99.1109 97.1773 95.5591 86.1066ZM49.9177 40.7141C54.6462 45.7721 60.7098 50.2527 66.6296 53.9199C75.0536 59.1394 83.6976 66.1853 89.6283 74.5601C89.6137 74.2624 89.6064 74.0935 89.6064 74.0935C86.8748 56.0676 74.8207 48.5479 56.796 42.644C55.0717 42.0787 53.764 41.7885 52.6997 41.5522C51.566 41.3006 50.7085 41.1102 49.9177 40.7141Z" fill="black"/>
<path d="M229.264 48.632V137H217.84V120.872C214.704 126.248 210.392 130.448 204.904 133.472C199.416 136.384 193.144 137.84 186.088 137.84C174.552 137.84 165.424 134.648 158.704 128.264C152.096 121.768 148.792 112.304 148.792 99.872V48.632H160.72V98.696C160.72 107.992 163.016 115.048 167.608 119.864C172.2 124.68 178.752 127.088 187.264 127.088C196.56 127.088 203.896 124.288 209.272 118.688C214.648 112.976 217.336 105.08 217.336 95V48.632H229.264Z" fill="black"/>
<path d="M269.559 137.84C262.391 137.84 255.503 136.832 248.895 134.816C242.399 132.688 237.303 130.056 233.607 126.92L238.983 117.512C242.679 120.424 247.327 122.832 252.927 124.736C258.527 126.528 264.351 127.424 270.399 127.424C278.463 127.424 284.399 126.192 288.207 123.728C292.127 121.152 294.087 117.568 294.087 112.976C294.087 109.728 293.023 107.208 290.895 105.416C288.767 103.512 286.079 102.112 282.831 101.216C279.583 100.208 275.271 99.256 269.895 98.36C262.727 97.016 256.959 95.672 252.591 94.328C248.223 92.872 244.471 90.464 241.335 87.104C238.311 83.744 236.799 79.096 236.799 73.16C236.799 65.768 239.879 59.72 246.039 55.016C252.199 50.312 260.767 47.96 271.743 47.96C277.455 47.96 283.167 48.744 288.879 50.312C294.591 51.768 299.295 53.728 302.991 56.192L297.783 65.768C290.503 60.728 281.823 58.208 271.743 58.208C264.127 58.208 258.359 59.552 254.439 62.24C250.631 64.928 248.727 68.456 248.727 72.824C248.727 76.184 249.791 78.872 251.919 80.888C254.159 82.904 256.903 84.416 260.151 85.424C263.399 86.32 267.879 87.272 273.591 88.28C280.647 89.624 286.303 90.968 290.559 92.312C294.815 93.656 298.455 95.952 301.479 99.2C304.503 102.448 306.015 106.928 306.015 112.64C306.015 120.368 302.767 126.528 296.271 131.12C289.887 135.6 280.983 137.84 269.559 137.84Z" fill="black"/>
<path d="M311.266 48.632H323.194V137H311.266V48.632ZM317.314 29.312C314.85 29.312 312.778 28.472 311.098 26.792C309.418 25.112 308.578 23.096 308.578 20.744C308.578 18.504 309.418 16.544 311.098 14.864C312.778 13.184 314.85 12.344 317.314 12.344C319.778 12.344 321.85 13.184 323.53 14.864C325.21 16.432 326.05 18.336 326.05 20.576C326.05 23.04 325.21 25.112 323.53 26.792C321.85 28.472 319.778 29.312 317.314 29.312Z" fill="black"/>
<path d="M376.208 137.84C367.472 137.84 359.632 135.936 352.688 132.128C345.856 128.32 340.48 123 336.56 116.168C332.64 109.224 330.68 101.44 330.68 92.816C330.68 84.192 332.64 76.464 336.56 69.632C340.48 62.8 345.856 57.48 352.688 53.672C359.632 49.864 367.472 47.96 376.208 47.96C383.824 47.96 390.6 49.472 396.536 52.496C402.584 55.408 407.344 59.72 410.816 65.432L401.912 71.48C399 67.112 395.304 63.864 390.824 61.736C386.344 59.496 381.472 58.376 376.208 58.376C369.824 58.376 364.056 59.832 358.904 62.744C353.864 65.544 349.888 69.576 346.976 74.84C344.176 80.104 342.776 86.096 342.776 92.816C342.776 99.648 344.176 105.696 346.976 110.96C349.888 116.112 353.864 120.144 358.904 123.056C364.056 125.856 369.824 127.256 376.208 127.256C381.472 127.256 386.344 126.192 390.824 124.064C395.304 121.936 399 118.688 401.912 114.32L410.816 120.368C407.344 126.08 402.584 130.448 396.536 133.472C390.488 136.384 383.712 137.84 376.208 137.84Z" fill="black"/>
<path d="M542.104 19.4V137H530.176V42.92L483.976 122.048H478.096L431.896 43.424V137H419.968V19.4H430.216L481.288 106.592L531.856 19.4H542.104Z" fill="black"/>
<path d="M552.632 48.632H564.56V137H552.632V48.632ZM558.68 29.312C556.216 29.312 554.144 28.472 552.464 26.792C550.784 25.112 549.944 23.096 549.944 20.744C549.944 18.504 550.784 16.544 552.464 14.864C554.144 13.184 556.216 12.344 558.68 12.344C561.144 12.344 563.216 13.184 564.896 14.864C566.576 16.432 567.416 18.336 567.416 20.576C567.416 23.04 566.576 25.112 564.896 26.792C563.216 28.472 561.144 29.312 558.68 29.312Z" fill="black"/>
<path d="M161.295 0V34.5H148.5L147.45 27.3L87 119.145L90.705 101.205L149.4 0H161.295Z" fill="black"/>
</svg>
